<svg width="39" height="39" viewBox="0 0 39 39" fill="none" xmlns="http://www.w3.org/2000/svg">
<path d="M19.5 9.75C18.2948 9.75 17.1166 10.1074 16.1145 10.777C15.1124 11.4466 14.3313 12.3983 13.8701 13.5118C13.4089 14.6253 13.2882 15.8505 13.5233 17.0326C13.7585 18.2147 14.3388 19.3005 15.1911 20.1527C16.0433 21.0049 17.1291 21.5853 18.3112 21.8204C19.4932 22.0555 20.7185 21.9349 21.832 21.4736C22.9455 21.0124 23.8972 20.2314 24.5668 19.2293C25.2364 18.2271 25.5938 17.049 25.5938 15.8438C25.5938 14.2276 24.9517 12.6776 23.8089 11.5348C22.6661 10.392 21.1162 9.75 19.5 9.75ZM19.5 19.5C18.7769 19.5 18.07 19.2856 17.4687 18.8838C16.8674 18.4821 16.3988 17.911 16.1221 17.2429C15.8453 16.5748 15.7729 15.8397 15.914 15.1305C16.0551 14.4212 16.4033 13.7697 16.9146 13.2584C17.426 12.7471 18.0775 12.3988 18.7867 12.2578C19.4959 12.1167 20.2311 12.1891 20.8992 12.4658C21.5673 12.7425 22.1383 13.2112 22.5401 13.8124C22.9418 14.4137 23.1563 15.1206 23.1563 15.8438C23.1553 16.8132 22.7698 17.7426 22.0843 18.428C21.3988 19.1135 20.4694 19.499 19.5 19.5Z" fill="black"/>
<path d="M19.5 2.4375C16.1254 2.4375 12.8265 3.4382 10.0206 5.31305C7.21468 7.1879 5.02773 9.8527 3.73631 12.9705C2.44489 16.0882 2.107 19.5189 2.76536 22.8287C3.42372 26.1385 5.04876 29.1788 7.435 31.565C9.82123 33.9512 12.8615 35.5763 16.1713 36.2346C19.4811 36.893 22.9118 36.5551 26.0295 35.2637C29.1473 33.9723 31.8121 31.7853 33.687 28.9794C35.5618 26.1735 36.5625 22.8746 36.5625 19.5C36.5573 14.9763 34.758 10.6394 31.5593 7.44069C28.3606 4.24197 24.0237 2.44266 19.5 2.4375V2.4375ZM12.1875 32.147V30.4688C12.1885 29.4993 12.574 28.5699 13.2595 27.8845C13.9449 27.199 14.8744 26.8135 15.8438 26.8125H23.1563C24.1257 26.8135 25.0551 27.199 25.7405 27.8845C26.426 28.5699 26.8115 29.4993 26.8125 30.4688V32.147C24.5934 33.4428 22.0698 34.1256 19.5 34.1256C16.9303 34.1256 14.4066 33.4428 12.1875 32.147V32.147ZM29.2403 30.3786C29.216 28.78 28.5647 27.2549 27.4266 26.1319C26.2886 25.009 24.755 24.378 23.1563 24.375H15.8438C14.245 24.378 12.7114 25.009 11.5734 26.1319C10.4354 27.2549 9.78405 28.78 9.75976 30.3786C7.54963 28.4051 5.99105 25.8069 5.2904 22.9279C4.58975 20.049 4.78007 17.0251 5.83616 14.2568C6.89226 11.4884 8.76431 9.10609 11.2044 7.42532C13.6446 5.74454 16.5376 4.84456 19.5006 4.84456C22.4636 4.84456 25.3567 5.74454 27.7968 7.42532C30.2369 9.10609 32.109 11.4884 33.1651 14.2568C34.2212 17.0251 34.4115 20.049 33.7108 22.9279C33.0102 25.8069 31.4516 28.4051 29.2415 30.3786H29.2403Z" fill="black"/>
</svg>
