<svg width="18" height="18" viewBox="0 0 18 18" fill="none" xmlns="http://www.w3.org/2000/svg">
<path fill-rule="evenodd" clip-rule="evenodd" d="M6.75519 2.25248C5.5608 2.25248 4.41532 2.72693 3.57076 3.57145C2.7262 4.41597 2.25173 5.56139 2.25173 6.75573C2.25173 7.95006 2.7262 9.09548 3.57076 9.94C4.41532 10.7845 5.5608 11.259 6.75519 11.259C7.94958 11.259 9.09505 10.7845 9.93961 9.94C10.7842 9.09548 11.2586 7.95006 11.2586 6.75573C11.2586 5.56139 10.7842 4.41597 9.93961 3.57145C9.09505 2.72693 7.94958 2.25248 6.75519 2.25248ZM1.27742e-07 6.75573C-0.000135542 5.69263 0.250665 4.64451 0.732005 3.69661C1.21334 2.74871 1.91163 1.9278 2.77007 1.30064C3.62851 0.673482 4.62287 0.257786 5.67227 0.0873622C6.72167 -0.0830621 7.79648 -0.00340277 8.80929 0.319861C9.82209 0.643126 10.7443 1.20087 11.5009 1.94772C12.2575 2.69458 12.8271 3.60946 13.1634 4.61796C13.4998 5.62646 13.5933 6.7001 13.4364 7.75156C13.2796 8.80303 12.8767 9.80262 12.2607 10.669L17.684 16.0921C17.889 16.3044 18.0025 16.5888 18 16.884C17.9974 17.1792 17.879 17.4615 17.6702 17.6703C17.4615 17.879 17.1791 17.9974 16.8839 18C16.5887 18.0025 16.3043 17.889 16.092 17.684L10.6698 12.2621C9.6592 12.9807 8.47027 13.4072 7.23332 13.495C5.99636 13.5827 4.75911 13.3283 3.65715 12.7596C2.55518 12.191 1.63103 11.3299 0.985946 10.2709C0.340867 9.21188 -0.000240992 7.99573 1.27742e-07 6.75573V6.75573Z" fill="black"/>
</svg>
