<svg width="18" height="18" viewBox="0 0 18 18" fill="none" xmlns="http://www.w3.org/2000/svg">
<path d="M8.98349 1.46325e-05C6.57856 0.00433318 4.39501 0.952018 2.78292 2.49261L1.48685 1.19654C0.938141 0.647833 0 1.03643 0 1.81239V6.67743C0 7.15846 0.38994 7.5484 0.870968 7.5484H5.73601C6.51197 7.5484 6.90057 6.61025 6.35189 6.06155L4.83677 4.54643C5.95684 3.49767 7.40616 2.91674 8.94593 2.90346C12.2991 2.8745 15.1256 5.5881 15.0966 9.05256C15.069 12.339 12.4046 15.0968 9 15.0968C7.50749 15.0968 6.09688 14.5641 4.9852 13.5887C4.81308 13.4377 4.55313 13.4469 4.3912 13.6088L2.95185 15.0481C2.77505 15.2249 2.78379 15.5132 2.96935 15.6808C4.56525 17.1222 6.6801 18 9 18C13.9705 18 18 13.9706 18 9.00008C18 4.03524 13.9483 -0.00887649 8.98349 1.46325e-05Z" fill="#1F1D2B"/>
</svg>
